<svg width="236" height="437" viewBox="0 0 236 437" fill="none" xmlns="http://www.w3.org/2000/svg">
<path d="M38.8478 137.096L2.42025 87.1309C-0.838829 82.6607 0.150855 76.3937 4.62887 73.1453L102.144 2.40622C106.607 -0.831262 112.849 0.154373 116.097 4.60958L152.524 54.5747C155.783 59.045 154.794 65.312 150.316 68.5604L52.8001 139.299C48.3372 142.537 42.0959 141.551 38.8478 137.096Z" stroke="black"/>
<path d="M129.645 346.046L93.8496 296.161C90.656 291.711 91.6376 285.519 96.0513 282.274L183.48 218.002C187.966 214.705 194.281 215.706 197.527 220.23L233.323 270.114C236.517 274.565 235.535 280.757 231.121 284.001L143.693 348.273C139.207 351.571 132.891 350.57 129.645 346.046Z" stroke="black"/>
<path d="M112.846 264.032L91.2097 279.415C86.7435 282.59 80.5537 281.58 77.3294 277.149L12.3096 187.793C9.03476 183.293 10.0648 176.985 14.601 173.759L36.2373 158.377C40.7035 155.202 46.8933 156.212 50.1176 160.643L115.137 249.999C118.412 254.499 117.382 260.807 112.846 264.032Z" stroke="black"/>
<path d="M228.846 418.538L207.577 433.851C203.121 437.059 196.912 436.075 193.667 431.646L145.045 365.28C141.762 360.798 142.761 354.5 147.269 351.254L168.538 335.941C172.994 332.733 179.203 333.717 182.448 338.146L231.069 404.512C234.352 408.993 233.354 415.292 228.846 418.538Z" stroke="black"/>
<path d="M131.78 250.072C127.333 253.344 121.075 252.392 117.801 247.946L93.3227 214.702C90.0471 210.253 90.9993 203.991 95.4491 200.717L143.697 165.22C148.145 161.948 154.402 162.9 157.676 167.346L182.155 200.59C185.43 205.039 184.478 211.301 180.028 214.574L131.78 250.072Z" stroke="black"/>
</svg>
